<svg width="11" height="12" viewBox="0 0 11 12" fill="none" xmlns="http://www.w3.org/2000/svg">
<path d="M0.366606 1.83029H9.58857L9.08815 2.33071C8.94518 2.47369 8.94518 2.70648 9.08815 2.84946C9.15964 2.92095 9.25313 2.95761 9.34661 2.95761C9.44009 2.95761 9.53358 2.92095 9.60507 2.84946L10.7177 1.73681C10.7874 1.66715 10.8259 1.5755 10.8259 1.47835C10.8259 1.3812 10.7874 1.28772 10.7177 1.2199L9.60507 0.107247C9.46209 -0.0357288 9.2293 -0.0357288 9.08632 0.107247C8.94334 0.250224 8.94334 0.483018 9.08632 0.625994L9.56291 1.09708H0.366606C0.164973 1.09708 0 1.26205 0 1.46369C0 1.66532 0.164973 1.83029 0.366606 1.83029Z" fill="#454545"/>
<path d="M4.94634 3.66332C4.54308 3.66332 4.2168 3.9896 4.2168 4.39287V10.8176C4.2168 11.2191 4.54308 11.5472 4.94634 11.5472H6.05532C6.45676 11.5472 6.78487 11.2209 6.78487 10.8176V4.39287C6.78487 3.99143 6.45859 3.66332 6.05532 3.66332H4.94634ZM6.04982 10.8121L4.95001 10.8158L4.94634 4.39653L6.04982 4.39287V10.8121ZM6.05349 11.1787V10.8121V11.1787Z" fill="#454545"/>
<path d="M10.2683 3.66332H9.15935C8.75792 3.66332 8.43164 3.9896 8.43164 4.39287V10.8176C8.43164 11.2191 8.75792 11.5472 9.16119 11.5472H10.2702C10.6716 11.5472 10.9997 11.2209 10.9997 10.8176V4.39287C10.9979 3.9896 10.6716 3.66332 10.2683 3.66332ZM10.2647 10.8121L9.16485 10.8158L9.16119 4.39653L10.2647 4.39287V10.8121ZM10.2683 11.1787V10.8121V11.1787Z" fill="#454545"/>
<path d="M0.729545 11.5453H1.83853C2.23996 11.5453 2.56807 11.2191 2.56807 10.8158V4.39287C2.56807 3.99143 2.24179 3.66332 1.83853 3.66332H0.729545C0.326279 3.66332 0 3.9896 0 4.39287V10.8176C0 11.2191 0.326279 11.5453 0.729545 11.5453ZM1.83669 10.8121V11.1787V10.8121ZM1.83303 4.39287V10.8121L0.733211 10.8158L0.729545 4.39653L1.83303 4.39287Z" fill="#454545"/>
</svg>
