<svg width="26" height="26" viewBox="0 0 26 26" fill="none" xmlns="http://www.w3.org/2000/svg">
<circle cx="13" cy="13" r="13" fill="#B1F6FF"/>
<path d="M7.39993 8.99667H17.4603L16.9143 9.54258C16.7584 9.69855 16.7584 9.95251 16.9143 10.1085C16.9923 10.1865 17.0943 10.2265 17.1963 10.2265C17.2983 10.2265 17.4003 10.1865 17.4783 10.1085L18.6921 8.89468C18.768 8.8187 18.81 8.71871 18.81 8.61273C18.81 8.50675 18.768 8.40477 18.6921 8.33078L17.4783 7.11698C17.3223 6.96101 17.0683 6.96101 16.9123 7.11698C16.7564 7.27295 16.7564 7.52691 16.9123 7.68289L17.4323 8.1968H7.39993C7.17997 8.1968 7 8.37677 7 8.59673C7 8.8167 7.17997 8.99667 7.39993 8.99667Z" fill="#0DA1B4"/>
<path d="M12.3955 10.9963C11.9555 10.9963 11.5996 11.3523 11.5996 11.7922V18.801C11.5996 19.239 11.9555 19.5969 12.3955 19.5969H13.6053C14.0432 19.5969 14.4011 19.241 14.4011 18.801V11.7922C14.4011 11.3543 14.0452 10.9963 13.6053 10.9963H12.3955ZM13.5993 18.795L12.3995 18.799L12.3955 11.7962L13.5993 11.7922V18.795ZM13.6033 19.195V18.795V19.195Z" fill="#0DA1B4"/>
<path d="M18.2009 10.9963H16.9911C16.5532 10.9963 16.1973 11.3523 16.1973 11.7922V18.801C16.1973 19.239 16.5532 19.5969 16.9931 19.5969H18.2029C18.6409 19.5969 18.9988 19.241 18.9988 18.801V11.7922C18.9968 11.3523 18.6409 10.9963 18.2009 10.9963ZM18.1969 18.795L16.9971 18.799L16.9931 11.7962L18.1969 11.7922V18.795ZM18.2009 19.195V18.795V19.195Z" fill="#0DA1B4"/>
<path d="M7.79587 19.5949H9.00567C9.44359 19.5949 9.80153 19.239 9.80153 18.799V11.7922C9.80153 11.3543 9.44559 10.9963 9.00567 10.9963H7.79587C7.35594 10.9963 7 11.3523 7 11.7922V18.801C7 19.239 7.35594 19.5949 7.79587 19.5949ZM9.00367 18.795V19.195V18.795ZM8.99967 11.7922V18.795L7.79987 18.799L7.79587 11.7962L8.99967 11.7922Z" fill="#0DA1B4"/>
</svg>
