<svg width="20" height="20" viewBox="0 0 20 20" fill="none" xmlns="http://www.w3.org/2000/svg">
<path fill-rule="evenodd" clip-rule="evenodd" d="M15.9872 15.6748V4.32548C15.9872 4.15278 15.8475 4.01294 15.6748 4.01294H4.32546C4.15277 4.01294 4.01292 4.15282 4.01292 4.32548V15.6748C4.01292 15.8475 4.15281 15.9873 4.32546 15.9873H15.6748C15.8475 15.9874 15.9872 15.8475 15.9872 15.6748ZM15.3622 4.63782V15.3622H4.63804V4.63782H15.3622ZM13.6485 11.6947H12.5334C12.0719 11.6947 11.6965 11.3326 11.6965 10.8871V8.53485C11.6965 8.36235 11.8364 8.22231 12.0091 8.22231C12.1817 8.22231 12.3216 8.36239 12.3216 8.53485V10.8871C12.3216 10.9863 12.4184 11.0698 12.5334 11.0698H13.6485C13.763 11.0698 13.8599 10.9863 13.8599 10.8871V8.53485C13.8599 8.36235 14.0001 8.22231 14.1724 8.22231C14.3449 8.22231 14.4848 8.36239 14.4848 8.53485V10.8871C14.4848 11.3326 14.11 11.6947 13.6485 11.6947ZM10.6387 10.7694H9.23089V11.4654C9.23089 11.6381 9.09101 11.778 8.91851 11.778C8.74581 11.778 8.60597 11.6381 8.60597 11.4654V9.07095C8.60597 8.65426 8.94507 8.31516 9.36136 8.31516H10.6387C11.0552 8.31516 11.3943 8.65426 11.3943 9.07095V10.0138C11.3943 10.4304 11.0552 10.7694 10.6387 10.7694V10.7694ZM10.7692 10.0138C10.7692 10.0845 10.7095 10.1444 10.6387 10.1444H9.23089V9.07095C9.23089 9.00001 9.29078 8.94028 9.36136 8.94028H10.6387C10.7095 8.94028 10.7691 9.00001 10.7691 9.07095V10.0138H10.7692ZM8.30354 10.9413C8.30354 11.4026 7.92815 11.778 7.46686 11.778H6.35173C5.89028 11.778 5.51524 11.4026 5.51524 10.9413V9.15188C5.51524 8.69059 5.89028 8.3152 6.35173 8.3152H7.46686C7.92815 8.3152 8.30354 8.69059 8.30354 9.15188V9.54349C8.30354 9.71599 8.16366 9.85583 7.99116 9.85583C7.81846 9.85583 7.67861 9.71595 7.67861 9.54349V9.15188C7.67861 9.03708 7.5817 8.94032 7.46686 8.94032H6.35173C6.23712 8.94032 6.14036 9.03708 6.14036 9.15188V10.9413C6.14036 11.056 6.23712 11.1529 6.35173 11.1529H7.46686C7.58166 11.1529 7.67861 11.056 7.67861 10.9413V10.5497C7.67861 10.3772 7.8185 10.2373 7.99116 10.2373C8.16366 10.2373 8.30354 10.3772 8.30354 10.5497V10.9413ZM9.68758 2.16671V0.312557C9.68758 0.140055 9.82746 1.52588e-05 10.0001 1.52588e-05C10.1728 1.52588e-05 10.3127 0.140094 10.3127 0.312557V2.16671H12.2204V0.312557C12.2204 0.140055 12.3603 1.52588e-05 12.5329 1.52588e-05C12.7051 1.52588e-05 12.8453 0.140094 12.8453 0.312557V2.16671H14.7527V0.312557C14.7527 0.140055 14.8926 1.52588e-05 15.0653 1.52588e-05C15.2379 1.52588e-05 15.3778 0.140094 15.3778 0.312557V2.16671H17.5208C17.6935 2.16671 17.8333 2.3066 17.8333 2.47925V4.62236H19.6876C19.8603 4.62236 20 4.76224 20 4.93474C20 5.10744 19.8603 5.24728 19.6876 5.24728H17.8333V7.15507H19.6876C19.8603 7.15507 20 7.29496 20 7.46746C20 7.64015 19.8603 7.78 19.6876 7.78H17.8333V9.68759H19.6876C19.8603 9.68759 20 9.82748 20 10.0001C20 10.1728 19.8603 10.3127 19.6876 10.3127H17.8333V12.2205H19.6876C19.8603 12.2205 20 12.3603 20 12.533C20 12.7053 19.8603 12.8455 19.6876 12.8455H17.8333V14.7529H19.6876C19.8603 14.7529 20 14.8928 20 15.0653C20 15.238 19.8603 15.3779 19.6876 15.3779H17.8333V17.521C17.8333 17.6935 17.6934 17.8334 17.5208 17.8334H15.3778V19.6877C15.3778 19.8604 15.2379 20.0002 15.0653 20.0002C14.8926 20.0002 14.7527 19.8604 14.7527 19.6877V17.8334H12.8454V19.6877C12.8454 19.8604 12.7051 20.0002 12.533 20.0002C12.3603 20.0002 12.2204 19.8604 12.2204 19.6877V17.8334H10.3127V19.6877C10.3127 19.8604 10.1728 20.0002 10.0002 20.0002C9.82746 20.0002 9.68761 19.8604 9.68761 19.6877V17.8334H7.77983V19.6877C7.77983 19.8604 7.63994 20.0002 7.46728 20.0002C7.29498 20.0002 7.15474 19.8604 7.15474 19.6877V17.8334H5.24735V19.6877C5.24735 19.8604 5.10746 20.0002 4.93496 20.0002C4.76226 20.0002 4.62242 19.8604 4.62242 19.6877V17.8334H2.47924C2.30674 17.8334 2.16685 17.6935 2.16685 17.521V15.3779H0.312541C0.139845 15.3779 0 15.238 0 15.0654C0 14.8929 0.139884 14.753 0.312541 14.753H2.16685V12.8456H0.312541C0.139845 12.8456 0 12.7053 0 12.533C0 12.3603 0.139884 12.2205 0.312541 12.2205H2.16685V10.3127H0.312541C0.139845 10.3127 0 10.1728 0 10.0002C0 9.82751 0.139884 9.68763 0.312541 9.68763H2.16685V7.78004H0.312541C0.139845 7.78004 0 7.64015 0 7.4675C0 7.29499 0.139884 7.15511 0.312541 7.15511H2.16685V5.24732H0.312541C0.139845 5.24732 0 5.10744 0 4.93478C0 4.76228 0.139884 4.6224 0.312541 4.6224H2.16685V2.47925C2.16685 2.3066 2.30674 2.16671 2.47924 2.16671H4.62234V0.312557C4.62234 0.140055 4.76222 1.52588e-05 4.93488 1.52588e-05C5.10738 1.52588e-05 5.24727 0.140094 5.24727 0.312557V2.16671H7.15466V0.312557C7.15466 0.140055 7.2949 1.52588e-05 7.46721 1.52588e-05C7.6399 1.52588e-05 7.77975 0.140094 7.77975 0.312557V2.16671H9.68758Z" fill="#454545"/>
</svg>
