<svg width="46" height="46" viewBox="0 0 46 46" fill="none" xmlns="http://www.w3.org/2000/svg">
<rect width="46" height="46" rx="2" fill="#DBA337"/>
<path fill-rule="evenodd" clip-rule="evenodd" d="M29.9839 29.5935V15.4068C29.9839 15.191 29.8093 15.0162 29.5935 15.0162H15.4068C15.191 15.0162 15.0162 15.191 15.0162 15.4068V29.5935C15.0162 29.8093 15.191 29.9841 15.4068 29.9841H29.5935C29.8093 29.9842 29.9839 29.8093 29.9839 29.5935ZM29.2028 15.7973V29.2028H15.7976V15.7973H29.2028ZM27.0606 24.6183H25.6667C25.0899 24.6183 24.6206 24.1657 24.6206 23.6089V20.6685C24.6206 20.4529 24.7955 20.2779 25.0113 20.2779C25.2272 20.2779 25.402 20.453 25.402 20.6685V23.6089C25.402 23.7328 25.523 23.8372 25.6667 23.8372H27.0606C27.2037 23.8372 27.3248 23.7328 27.3248 23.6089V20.6685C27.3248 20.4529 27.5001 20.2779 27.7155 20.2779C27.9311 20.2779 28.106 20.453 28.106 20.6685V23.6089C28.106 24.1657 27.6375 24.6183 27.0606 24.6183ZM23.2984 23.4617H21.5386V24.3318C21.5386 24.5476 21.3638 24.7224 21.1481 24.7224C20.9323 24.7224 20.7575 24.5476 20.7575 24.3318V21.3387C20.7575 20.8178 21.1813 20.3939 21.7017 20.3939H23.2983C23.819 20.3939 24.2428 20.8178 24.2428 21.3387V22.5172C24.2428 23.038 23.819 23.4617 23.2984 23.4617ZM23.4615 22.5172C23.4615 22.6057 23.3869 22.6805 23.2984 22.6805H21.5386V21.3387C21.5386 21.25 21.6135 21.1753 21.7017 21.1753H23.2983C23.3868 21.1753 23.4614 21.25 23.4614 21.3387V22.5172H23.4615ZM20.3794 23.6766C20.3794 24.2532 19.9102 24.7225 19.3336 24.7225H17.9397C17.3629 24.7225 16.894 24.2532 16.894 23.6766V21.4398C16.894 20.8632 17.3629 20.394 17.9397 20.394H19.3336C19.9102 20.394 20.3794 20.8632 20.3794 21.4398V21.9293C20.3794 22.145 20.2046 22.3198 19.9889 22.3198C19.7731 22.3198 19.5983 22.1449 19.5983 21.9293V21.4398C19.5983 21.2963 19.4771 21.1754 19.3336 21.1754H17.9397C17.7964 21.1754 17.6754 21.2963 17.6754 21.4398V23.6766C17.6754 23.8199 17.7964 23.9411 17.9397 23.9411H19.3336C19.4771 23.9411 19.5983 23.8199 19.5983 23.6766V23.1871C19.5983 22.9715 19.7731 22.7966 19.9889 22.7966C20.2046 22.7966 20.3794 22.9715 20.3794 23.1871V23.6766ZM22.1095 12.7084V10.3907C22.1095 10.1751 22.2843 10 22.5001 10C22.716 10 22.8908 10.1751 22.8908 10.3907V12.7084H25.2755V10.3907C25.2755 10.1751 25.4504 10 25.6662 10C25.8813 10 26.0567 10.1751 26.0567 10.3907V12.7084H28.4409V10.3907C28.4409 10.1751 28.6158 10 28.8316 10C29.0474 10 29.2223 10.1751 29.2223 10.3907V12.7084H31.901C32.1168 12.7084 32.2916 12.8832 32.2916 13.099V15.7779H34.6095C34.8254 15.7779 35 15.9528 35 16.1684C35 16.3843 34.8254 16.5591 34.6095 16.5591H32.2916V18.9438H34.6095C34.8254 18.9438 35 19.1187 35 19.3343C35 19.5502 34.8254 19.725 34.6095 19.725H32.2916V22.1095H34.6095C34.8254 22.1095 35 22.2843 35 22.5001C35 22.716 34.8254 22.8908 34.6095 22.8908H32.2916V25.2756H34.6095C34.8254 25.2756 35 25.4504 35 25.6662C35 25.8816 34.8254 26.0569 34.6095 26.0569H32.2916V28.4412H34.6095C34.8254 28.4412 35 28.616 35 28.8316C35 29.0475 34.8254 29.2223 34.6095 29.2223H32.2916V31.9012C32.2916 32.1168 32.1168 32.2917 31.901 32.2917H29.2223V34.6096C29.2223 34.8255 29.0474 35.0003 28.8316 35.0003C28.6158 35.0003 28.4409 34.8254 28.4409 34.6096V32.2917H26.0567V34.6096C26.0567 34.8255 25.8814 35.0003 25.6662 35.0003C25.4504 35.0003 25.2756 34.8254 25.2756 34.6096V32.2917H22.8909V34.6096C22.8909 34.8255 22.716 35.0003 22.5002 35.0003C22.2843 35.0003 22.1095 34.8254 22.1095 34.6096V32.2917H19.7248V34.6096C19.7248 34.8255 19.5499 35.0003 19.3341 35.0003C19.1187 35.0003 18.9434 34.8254 18.9434 34.6096V32.2917H16.5592V34.6096C16.5592 34.8255 16.3843 35.0003 16.1687 35.0003C15.9528 35.0003 15.778 34.8254 15.778 34.6096V32.2917H13.099C12.8834 32.2917 12.7086 32.1169 12.7086 31.9012V29.2224H10.3907C10.1748 29.2224 10 29.0475 10 28.8317C10 28.6161 10.1749 28.4412 10.3907 28.4412H12.7086V26.057H10.3907C10.1748 26.057 10 25.8817 10 25.6663C10 25.4504 10.1749 25.2756 10.3907 25.2756H12.7086V22.8909H10.3907C10.1748 22.8909 10 22.716 10 22.5002C10 22.2844 10.1749 22.1095 10.3907 22.1095H12.7086V19.725H10.3907C10.1748 19.725 10 19.5502 10 19.3343C10 19.1187 10.1749 18.9439 10.3907 18.9439H12.7086V16.5591H10.3907C10.1748 16.5591 10 16.3843 10 16.1685C10 15.9528 10.1749 15.778 10.3907 15.778H12.7086V13.099C12.7086 12.8832 12.8834 12.7084 13.099 12.7084H15.7779V10.3907C15.7779 10.1751 15.9528 10 16.1686 10C16.3842 10 16.5591 10.1751 16.5591 10.3907V12.7084H18.9433V10.3907C18.9433 10.1751 19.1186 10 19.334 10C19.5499 10 19.7247 10.1751 19.7247 10.3907V12.7084H22.1095Z" fill="white"/>
</svg>
