<svg width="22" height="29" viewBox="0 0 22 29" fill="none" xmlns="http://www.w3.org/2000/svg">
<path d="M12.8333 7.64183V0H1.375C0.613021 0 0 0.601232 0 1.34856V27.4207C0 28.168 0.613021 28.7692 1.375 28.7692H20.625C21.387 28.7692 22 28.168 22 27.4207V8.99038H14.2083C13.4521 8.99038 12.8333 8.38353 12.8333 7.64183ZM7.33333 15.7332C7.33333 15.9815 7.12823 16.1827 6.875 16.1827H6.41667C5.91021 16.1827 5.5 16.585 5.5 17.0817V18.8798C5.5 19.3765 5.91021 19.7788 6.41667 19.7788H6.875C7.12823 19.7788 7.33333 19.98 7.33333 20.2284V21.1274C7.33333 21.3758 7.12823 21.5769 6.875 21.5769H6.41667C4.89786 21.5769 3.66667 20.3694 3.66667 18.8798V17.0817C3.66667 15.5921 4.89786 14.3846 6.41667 14.3846H6.875C7.12823 14.3846 7.33333 14.5858 7.33333 14.8341V15.7332ZM9.86964 21.5769H9.16667C8.91344 21.5769 8.70833 21.3758 8.70833 21.1274V20.2284C8.70833 19.98 8.91344 19.7788 9.16667 19.7788H9.86964C10.2105 19.7788 10.466 19.5822 10.466 19.4069C10.466 19.3338 10.4231 19.2574 10.3446 19.1911L9.09047 18.1364C8.60521 17.7307 8.32677 17.1542 8.32677 16.5552C8.32677 15.3584 9.41646 14.3852 10.7565 14.3852H11.4583C11.7116 14.3852 11.9167 14.5863 11.9167 14.8347V15.7337C11.9167 15.9821 11.7116 16.1833 11.4583 16.1833H10.7554C10.4145 16.1833 10.159 16.3799 10.159 16.5552C10.159 16.6283 10.2019 16.7047 10.2804 16.771L11.5345 17.8257C12.0198 18.2314 12.2982 18.8079 12.2982 19.4069C12.2988 20.6031 11.2097 21.5769 9.86964 21.5769ZM14.6667 14.8341V16.0029C14.6667 17.1418 14.9932 18.26 15.5833 19.199C16.1734 18.2606 16.5 17.1418 16.5 16.0029V14.8341C16.5 14.5858 16.7051 14.3846 16.9583 14.3846H17.875C18.1282 14.3846 18.3333 14.5858 18.3333 14.8341V16.0029C18.3333 17.9965 17.5954 19.8738 16.2548 21.2898C16.0818 21.4724 15.8383 21.5769 15.5833 21.5769C15.3284 21.5769 15.0849 21.4724 14.9119 21.2898C13.5712 19.8738 12.8333 17.9965 12.8333 16.0029V14.8341C12.8333 14.5858 13.0384 14.3846 13.2917 14.3846H14.2083C14.4616 14.3846 14.6667 14.5858 14.6667 14.8341ZM21.599 5.89994L15.9901 0.393329C15.7323 0.140475 15.3828 0 15.0161 0H14.6667V7.19231H22V6.84955C22 6.49555 21.8568 6.15279 21.599 5.89994Z" fill="#649936"/>
</svg>
