<svg width="46" height="46" viewBox="0 0 46 46" fill="none" xmlns="http://www.w3.org/2000/svg">
<rect width="46" height="46" rx="2" fill="#4164A9"/>
<path d="M22.0713 18.5961H22.1071C23.2567 18.511 24.3978 18.3356 25.5199 18.0715C25.7418 18.0137 25.8752 17.7876 25.8186 17.5654C25.7619 17.3433 25.5365 17.2087 25.3141 17.2641C24.2363 17.5165 23.1403 17.6837 22.0363 17.7641C21.8061 17.7737 21.6274 17.9681 21.6371 18.1982C21.6468 18.4283 21.8411 18.607 22.0713 18.5974V18.5961Z" fill="white"/>
<path d="M12.0827 15.9999C12.3128 15.9999 12.4993 15.8134 12.4993 15.5833C12.4993 15.3531 12.3128 15.1666 12.0827 15.1666C11.8526 15.1666 11.666 15.3531 11.666 15.5833C11.666 15.8134 11.8526 15.9999 12.0827 15.9999Z" fill="white"/>
<path d="M12.0827 16.8332C11.8526 16.8332 11.666 17.0198 11.666 17.2499V18.0832C11.666 18.3133 11.8526 18.4999 12.0827 18.4999C12.3128 18.4999 12.4993 18.3133 12.4993 18.0832V17.2499C12.4993 17.0198 12.3128 16.8332 12.0827 16.8332Z" fill="white"/>
<path d="M12.0827 21.4165C12.3128 21.4165 12.4993 21.2299 12.4993 20.9998C12.4993 20.7697 12.3128 20.5832 12.0827 20.5832C11.8526 20.5832 11.666 20.7697 11.666 20.9998C11.666 21.2299 11.8526 21.4165 12.0827 21.4165Z" fill="white"/>
<path d="M12.0827 22.2498C11.8526 22.2498 11.666 22.4364 11.666 22.6665V23.4998C11.666 23.7299 11.8526 23.9164 12.0827 23.9164C12.3128 23.9164 12.4993 23.7299 12.4993 23.4998V22.6665C12.4993 22.4364 12.3128 22.2498 12.0827 22.2498Z" fill="white"/>
<path d="M12.0827 26.8331C12.3128 26.8331 12.4993 26.6465 12.4993 26.4164C12.4993 26.1863 12.3128 25.9997 12.0827 25.9997C11.8526 25.9997 11.666 26.1863 11.666 26.4164C11.666 26.6465 11.8526 26.8331 12.0827 26.8331Z" fill="white"/>
<path d="M12.0827 27.6664C11.8526 27.6664 11.666 27.8529 11.666 28.083V28.9164C11.666 29.1465 11.8526 29.333 12.0827 29.333C12.3128 29.333 12.4993 29.1465 12.4993 28.9164V28.083C12.4993 27.8529 12.3128 27.6664 12.0827 27.6664Z" fill="white"/>
<path d="M27.4997 20.9998V13.0833C27.4997 11.0237 19.1069 11 18.7499 11C18.3928 11 10 11.0237 10 13.0833V29.7497C10 31.8092 18.3928 31.833 18.7499 31.833C19.4482 31.833 20.1211 31.8138 20.7665 31.7813C22.3902 35.1106 26.2023 36.7546 29.738 35.6505C33.2737 34.5463 35.4728 31.0251 34.9134 27.3635C34.354 23.7019 31.2038 20.9979 27.4997 20.9998ZM20.8181 25.1106C20.119 25.146 19.4236 25.1664 18.7499 25.1664C13.8412 25.1664 11.0416 24.3602 10.8333 23.9031V19.484C12.962 20.5669 18.4619 20.5832 18.7499 20.5832C19.0378 20.5832 24.5377 20.5669 26.6664 19.484V21.049C24.1581 21.3337 21.9608 22.8597 20.8181 25.1106ZM26.6664 18.484C26.4676 18.9407 23.6664 19.7499 18.7499 19.7499C13.8183 19.7499 11.0146 18.9357 10.8333 18.4999V14.0674C12.962 15.1503 18.4619 15.1666 18.7499 15.1666C19.0378 15.1666 24.5377 15.1503 26.6664 14.0674V18.484ZM18.7499 11.8333C23.6102 11.8333 26.4039 12.625 26.6597 13.0833C26.4039 13.5416 23.6102 14.3333 18.7499 14.3333C13.8333 14.3333 11.0321 13.5241 10.8333 13.107V13.0991C11.0321 12.6425 13.8333 11.8333 18.7499 11.8333ZM18.7499 30.9997C13.8412 30.9997 11.0416 30.1934 10.8333 29.7363V24.9006C12.962 25.9835 18.4619 25.9997 18.7499 25.9997C19.3061 25.9997 19.8773 25.9835 20.4519 25.9602C19.8594 27.5725 19.8494 29.3412 20.4236 30.9601C19.8827 30.9847 19.3269 30.9997 18.7499 30.9997ZM27.4997 35.1663C23.8179 35.1663 20.8331 32.1815 20.8331 28.4997C20.8331 24.8179 23.8179 21.8331 27.4997 21.8331C31.1815 21.8331 34.1663 24.8179 34.1663 28.4997C34.1619 32.1797 31.1797 35.1619 27.4997 35.1663Z" fill="white"/>
<path d="M27.4992 23.4998C27.7294 23.4998 27.9159 23.3132 27.9159 23.0831C27.9159 22.853 27.7294 22.6665 27.4992 22.6665C24.2791 22.6699 21.6695 25.2795 21.666 28.4997C21.666 28.7298 21.8526 28.9164 22.0827 28.9164C22.3128 28.9164 22.4993 28.7298 22.4993 28.4997C22.5023 25.7396 24.7391 23.5028 27.4992 23.4998Z" fill="white"/>
<path d="M27.5006 33.4996C27.2705 33.4996 27.084 33.6862 27.084 33.9163C27.084 34.1464 27.2705 34.3329 27.5006 34.3329C30.7208 34.3295 33.3304 31.7199 33.3339 28.4997C33.3339 28.2696 33.1473 28.083 32.9172 28.083C32.6871 28.083 32.5006 28.2696 32.5006 28.4997C32.4976 31.2598 30.2608 33.4966 27.5006 33.4996Z" fill="white"/>
<path d="M27.9172 24.7498C27.9172 24.5197 27.7307 24.3331 27.5006 24.3331C25.2005 24.3356 23.3365 26.1996 23.334 28.4997C23.334 28.7298 23.5205 28.9164 23.7506 28.9164C23.9808 28.9164 24.1673 28.7298 24.1673 28.4997C24.1694 26.6596 25.6605 25.1685 27.5006 25.1664C27.7307 25.1664 27.9172 24.9799 27.9172 24.7498Z" fill="white"/>
<path d="M27.084 32.2496C27.084 32.4798 27.2705 32.6663 27.5006 32.6663C29.8007 32.6638 31.6647 30.7998 31.6672 28.4997C31.6672 28.2696 31.4807 28.083 31.2506 28.083C31.0205 28.083 30.8339 28.2696 30.8339 28.4997C30.8319 30.3398 29.3407 31.8309 27.5006 31.833C27.2705 31.833 27.084 32.0195 27.084 32.2496Z" fill="white"/>
<path d="M29.5826 28.4997C29.5826 27.3491 28.6499 26.4164 27.4993 26.4164C26.3487 26.4164 25.416 27.3491 25.416 28.4997C25.416 29.6503 26.3487 30.583 27.4993 30.583C28.6493 30.5816 29.5812 29.6497 29.5826 28.4997ZM26.2493 28.4997C26.2493 27.8094 26.809 27.2497 27.4993 27.2497C28.1897 27.2497 28.7493 27.8094 28.7493 28.4997C28.7493 29.19 28.1897 29.7497 27.4993 29.7497C26.809 29.7497 26.2493 29.19 26.2493 28.4997Z" fill="white"/>
</svg>
