<svg width="16" height="16" viewBox="0 0 16 16" fill="none" xmlns="http://www.w3.org/2000/svg">
<path d="M7.37444 15.5C7.12444 15.5 6.91611 15.4167 6.74944 15.25C6.58278 15.0833 6.49944 14.875 6.49944 14.625V8.825L0.899445 1.725C0.716112 1.45833 0.691111 1.18733 0.824445 0.912C0.957778 0.637334 1.18278 0.5 1.49944 0.5H14.4994C14.8161 0.5 15.0411 0.637334 15.1744 0.912C15.3078 1.18733 15.2828 1.45833 15.0994 1.725L9.49944 8.825V14.625C9.49944 14.875 9.41611 15.0833 9.24944 15.25C9.08278 15.4167 8.87444 15.5 8.62444 15.5H7.37444ZM7.99944 8.3L12.9494 2H3.04945L7.99944 8.3Z" fill="white"/>
</svg>
