<svg width="130" height="45" viewBox="0 0 130 45" fill="none" xmlns="http://www.w3.org/2000/svg">
<g clip-path="url(#clip0_96_2178)">
<path d="M17.4024 17.7742C18.7434 17.7742 20.0526 18.3057 21.1382 19.3375C26.6303 24.4343 32.0267 29.7186 37.1995 35.0342C39.4028 37.2855 39.3389 40.5374 37.1037 42.7887C35.9543 43.9457 34.4535 44.571 32.9207 44.571C31.5477 44.571 30.2705 44.0707 29.2487 43.0702C24.012 38.1611 18.9989 33.1893 13.6664 27.9364L13.1874 27.4673C12.0699 26.3729 11.4632 24.9033 11.527 23.3399C11.559 21.839 12.2295 20.432 13.379 19.4314L13.411 19.4002L13.4429 19.3689C14.6243 18.337 15.9973 17.7742 17.4024 17.7742Z" fill="#4164A9"/>
<path d="M5.77949 6.48767C7.37604 6.48767 8.81294 7.08176 9.89859 8.14488C12.1019 10.3337 12.038 14.0233 9.8028 16.1496C8.71714 17.1814 7.31218 17.7442 5.81143 17.7442C4.24682 17.7442 2.77799 17.1501 1.66041 16.0244C0.574757 14.9613 0 13.523 0 12.0221C0 10.5213 0.638619 9.11419 1.72427 8.05107C2.80992 7.0505 4.24682 6.48767 5.77949 6.48767Z" fill="#5BC4D6"/>
<path d="M32.4412 0.483154C33.8781 1.85896 35.2193 3.14094 36.4327 4.45421C38.54 6.76805 38.54 9.51965 36.4964 11.6459C31.2917 16.9927 25.8954 22.277 20.4672 27.3425C19.4134 28.3118 18.1362 28.8434 16.7951 28.8434C15.3901 28.8434 14.0171 28.2806 12.9315 27.2487C10.7282 25.1538 10.6005 21.9957 12.644 19.9632C17.6573 14.8665 22.7343 9.92614 28.0987 4.70435C29.5036 3.32856 30.9724 1.89022 32.4412 0.483154Z" fill="#5BC4D6"/>
<path d="M47.3857 11.1124H50.3234V17.6162H50.483L56.1667 11.1124H59.6791V11.2688L54.0593 17.5537L60.2538 26.1211V26.2774H56.7096L52.1115 19.805L50.3234 21.8061V26.2462H47.3857V11.1124Z" fill="#141621"/>
<path d="M61.8828 11.1124H64.8205V23.5884H71.3663V26.3087H61.8828V11.1124Z" fill="#141621"/>
<path d="M80.4661 26.6223C79.3167 26.6223 78.231 26.4035 77.2411 25.997C76.2513 25.5905 75.3891 25.0276 74.6867 24.3085C73.9522 23.5893 73.4094 22.745 72.9943 21.7757C72.5792 20.8064 72.3877 19.7746 72.3877 18.6802C72.3877 17.5858 72.5792 16.5539 72.9943 15.5846C73.4094 14.6153 73.9842 13.7711 74.6867 13.0519C75.4211 12.3327 76.2513 11.7699 77.2411 11.3634C78.231 10.9569 79.2847 10.7381 80.4661 10.7381C81.6157 10.7381 82.7013 10.9569 83.6911 11.3634C84.6811 11.7699 85.5432 12.3327 86.2457 13.0519C86.98 13.7711 87.5229 14.6153 87.9379 15.5846C88.353 16.5539 88.5447 17.5858 88.5447 18.6802C88.5447 19.7746 88.353 20.8064 87.9379 21.7757C87.5229 22.745 86.9481 23.5893 86.2457 24.3085C85.5112 25.0276 84.6811 25.5905 83.6911 25.997C82.6694 26.4347 81.6157 26.6223 80.4661 26.6223ZM80.4661 23.9332C81.2006 23.9332 81.8711 23.8082 82.4778 23.558C83.1164 23.3079 83.6593 22.9639 84.1382 22.4949C84.6172 22.0572 84.9684 21.4944 85.2558 20.8377C85.5112 20.1811 85.6709 19.4931 85.6709 18.7114C85.6709 17.9298 85.5432 17.2106 85.2558 16.5853C85.0004 15.9286 84.6172 15.397 84.1382 14.928C83.6593 14.4903 83.1164 14.115 82.4778 13.8648C81.8393 13.6147 81.1687 13.4897 80.4661 13.4897C79.7318 13.4897 79.0612 13.6147 78.4545 13.8648C77.8159 14.115 77.2731 14.459 76.7941 14.928C76.3152 15.3658 75.9639 15.9286 75.6766 16.5853C75.4211 17.2418 75.2614 17.9298 75.2614 18.7114C75.2614 19.4931 75.3891 20.2124 75.6766 20.8377C75.9319 21.4944 76.3152 22.0259 76.7941 22.4949C77.2731 22.9327 77.8159 23.3079 78.4545 23.558C79.0612 23.8082 79.7318 23.9332 80.4661 23.9332Z" fill="#141621"/>
<path d="M88.96 11.1124H92.1211L95.3142 20.2427L95.889 22.1813H96.0487L96.6553 20.2427L99.9762 11.1124H103.137L97.4856 26.2774H94.4202L88.96 11.1124Z" fill="#141621"/>
<path d="M107.894 13.8327V17.366H114.12V20.0863H107.894V23.6196H114.791V26.3399H104.956V11.1124H114.791V13.8327H107.894Z" fill="#141621"/>
<path d="M117.475 11.1124H123.127C123.892 11.1124 124.627 11.2375 125.234 11.4876C125.873 11.7378 126.415 12.0504 126.862 12.4881C127.309 12.9259 127.661 13.4263 127.916 13.9891C128.172 14.5831 128.3 15.2086 128.3 15.8964C128.3 16.3967 128.204 16.897 128.044 17.3347C127.884 17.7725 127.628 18.179 127.341 18.5542C127.054 18.9295 126.671 19.2422 126.287 19.5235C125.873 19.805 125.458 20.0238 125.01 20.1802L124.978 20.3365L129.129 26.1524V26.3087H125.777L121.785 20.618H120.413V26.3087H117.475V11.1124ZM123.127 17.9602C123.797 17.9602 124.34 17.7725 124.755 17.366C125.169 16.9595 125.393 16.4592 125.393 15.8652C125.393 15.5837 125.362 15.3336 125.266 15.0834C125.169 14.8333 125.042 14.6144 124.851 14.3956C124.659 14.2079 124.436 14.0516 124.148 13.9266C123.86 13.8014 123.542 13.7389 123.19 13.7389H120.444V17.9602H123.127Z" fill="#141621"/>
<path d="M53.4191 37.1608C53.0997 37.5361 52.7165 37.8174 52.2695 38.0364C51.8224 38.2239 51.3435 38.349 50.8008 38.349C50.3218 38.349 49.8747 38.2552 49.4596 38.0989C49.0445 37.9112 48.6933 37.6924 48.3739 37.4109C48.0866 37.1296 47.8311 36.7543 47.6715 36.3479C47.4799 35.9414 47.416 35.5036 47.416 35.0346C47.416 34.5656 47.5119 34.1278 47.6715 33.7213C47.8631 33.3148 48.0866 32.9708 48.3739 32.6582C48.6613 32.3768 49.0445 32.1266 49.4596 31.9703C49.8747 31.7827 50.3218 31.7202 50.8008 31.7202C51.3116 31.7202 51.7906 31.814 52.1738 32.0015C52.5569 32.1892 52.9081 32.4393 53.2275 32.7833L52.3653 33.5963C52.1738 33.3773 51.9502 33.1898 51.6948 33.0647C51.4393 32.9396 51.152 32.8771 50.8008 32.8771C50.5133 32.8771 50.2259 32.9396 49.9386 33.0334C49.6831 33.1272 49.4277 33.2836 49.2361 33.4711C49.0445 33.6588 48.8849 33.8776 48.7572 34.1591C48.6294 34.4405 48.5974 34.7219 48.5974 35.0658C48.5974 35.4098 48.6613 35.6912 48.7572 35.9726C48.8849 36.2541 49.0125 36.4729 49.2361 36.6606C49.4277 36.8481 49.6512 37.0044 49.9386 37.0983C50.1941 37.1921 50.4814 37.2546 50.8008 37.2546C51.152 37.2546 51.5032 37.1921 51.7586 37.0357C52.0461 36.8794 52.3014 36.6918 52.493 36.4104L53.4191 37.1608Z" fill="#141621"/>
<path d="M67.1179 31.8138H68.3312V37.0355H71.0773V38.1612H67.0859V31.8138H67.1179Z" fill="#141621"/>
<path d="M87.6484 38.3485C87.1695 38.3485 86.7224 38.2546 86.3073 38.0983C85.8922 37.9107 85.5409 37.6918 85.2216 37.3792C84.9342 37.0664 84.6788 36.7225 84.5191 36.316C84.3595 35.9095 84.2637 35.4717 84.2637 35.0027C84.2637 34.5337 84.3595 34.0959 84.5191 33.6894C84.6788 33.2829 84.9342 32.9391 85.2216 32.6264C85.509 32.3136 85.8922 32.0948 86.3073 31.9071C86.7224 31.7196 87.1695 31.6571 87.6484 31.6571C88.1274 31.6571 88.5744 31.7508 88.9895 31.9071C89.4045 32.0636 89.7558 32.3136 90.0751 32.6264C90.3625 32.9391 90.618 33.2829 90.7776 33.6894C90.9373 34.0959 91.0331 34.5337 91.0331 35.0027C91.0331 35.4717 90.9373 35.9095 90.7776 36.316C90.618 36.7225 90.3625 37.0664 90.0751 37.3792C89.7878 37.6918 89.4045 37.9107 88.9895 38.0983C88.5744 38.2546 88.1274 38.3485 87.6484 38.3485ZM87.6484 37.1915C87.9358 37.1915 88.2231 37.129 88.5105 37.0352C88.766 36.9413 88.9895 36.785 89.2129 36.5974C89.4045 36.4098 89.5642 36.1909 89.6919 35.9095C89.8196 35.6281 89.8516 35.3467 89.8516 35.0027C89.8516 34.6587 89.7878 34.3774 89.6919 34.0959C89.5642 33.8146 89.4365 33.5957 89.2129 33.4081C89.0214 33.2204 88.7978 33.0641 88.5105 32.9703C88.255 32.8764 87.9677 32.8139 87.6484 32.8139C87.3291 32.8139 87.0736 32.8764 86.7862 32.9703C86.5308 33.0641 86.3073 33.2204 86.0838 33.4081C85.8922 33.5957 85.7326 33.8146 85.6048 34.0959C85.4771 34.3774 85.4451 34.6587 85.4451 35.0027C85.4451 35.3467 85.509 35.6281 85.6048 35.9095C85.7326 36.1909 85.8602 36.4098 86.0838 36.5974C86.2754 36.785 86.4989 36.9413 86.7862 37.0352C87.0736 37.1602 87.361 37.1915 87.6484 37.1915Z" fill="#141621"/>
<path d="M107.16 38.3488C106.777 38.3488 106.425 38.2862 106.106 38.1612C105.787 38.0361 105.531 37.8485 105.308 37.6297C105.084 37.4107 104.925 37.1293 104.797 36.7854C104.669 36.4414 104.605 36.0662 104.605 35.6597V31.8138H105.819V35.7222C105.819 35.9412 105.851 36.1287 105.915 36.3164C105.978 36.504 106.042 36.6603 106.17 36.7854C106.298 36.9105 106.425 37.0042 106.585 37.098C106.745 37.1605 106.936 37.2232 107.16 37.2232C107.383 37.2232 107.575 37.1919 107.735 37.098C107.894 37.0355 108.022 36.9105 108.15 36.7854C108.246 36.6603 108.341 36.504 108.405 36.3164C108.469 36.1287 108.501 35.9412 108.501 35.7222V31.8138H109.714V35.6597C109.714 36.0662 109.65 36.4102 109.523 36.7541C109.395 37.098 109.235 37.3795 109.012 37.5983C108.788 37.8485 108.533 38.0048 108.214 38.1612C107.894 38.2862 107.543 38.3488 107.16 38.3488Z" fill="#141621"/>
<path d="M123.57 31.8138H125.775C126.284 31.8138 126.764 31.8763 127.179 32.0326C127.595 32.1889 127.945 32.4078 128.233 32.6892C128.52 32.9706 128.743 33.3146 128.904 33.6899C129.063 34.0963 129.126 34.5027 129.126 34.9719C129.126 35.4409 129.063 35.8786 128.904 36.285C128.743 36.6915 128.52 37.0042 128.233 37.2857C127.945 37.567 127.595 37.786 127.179 37.9423C126.764 38.0987 126.317 38.1612 125.775 38.1612H123.57V31.8138ZM125.742 37.0668C126.093 37.0668 126.412 37.0042 126.7 36.9105C126.988 36.8167 127.211 36.6603 127.371 36.504C127.562 36.3164 127.69 36.0975 127.786 35.8474C127.882 35.5972 127.913 35.3157 127.913 35.0031C127.913 34.6904 127.882 34.409 127.786 34.1589C127.69 33.9087 127.562 33.6899 127.371 33.5022C127.179 33.3146 126.956 33.1896 126.7 33.0957C126.412 33.0019 126.125 32.9394 125.742 32.9394H124.816V37.0355H125.742V37.0668Z" fill="#141621"/>
</g>
<defs>
<clipPath id="clip0_96_2178">
<rect width="130" height="44.5714" fill="white"/>
</clipPath>
</defs>
</svg>
