<svg width="142" height="32" viewBox="0 0 142 32" fill="none" xmlns="http://www.w3.org/2000/svg">
<rect width="32" height="32" rx="6" fill="#4B4EFC"/>
<path fill-rule="evenodd" clip-rule="evenodd" d="M10.7614 16.1118C10.8112 16.2269 10.9087 16.3159 11.0283 16.3558L15.9071 17.9791C15.9682 17.9995 16.032 18.006 16.0941 17.9991C16.1531 17.9925 16.2104 17.9738 16.2623 17.9434L20.4792 15.4741C20.5921 15.4081 20.6669 15.2938 20.6823 15.164C20.6978 15.0342 20.6521 14.9032 20.5584 14.8086L14.7636 8.96059C14.6646 8.86076 14.5243 8.81332 14.3862 8.83359C14.2485 8.85378 14.1305 8.93899 14.0697 9.06224L10.7689 15.7563C10.7143 15.8669 10.7116 15.9967 10.7614 16.1118Z" fill="#FFCC02"/>
<path fill-rule="evenodd" clip-rule="evenodd" d="M16.3283 19.2447C16.3051 19.0833 16.1918 18.947 16.036 18.8926L3.16487 14.4028C2.98636 14.3405 2.79015 14.3989 2.67958 14.5471C2.5691 14.6954 2.56966 14.8995 2.68101 15.052L9.08102 23.8171C9.17777 23.9496 9.33541 24.0136 9.48728 23.9967C9.55256 23.9895 9.61675 23.9672 9.67461 23.929L16.1457 19.6537C16.2809 19.5644 16.3515 19.406 16.3283 19.2447Z" fill="#EFAE07"/>
<path fill-rule="evenodd" clip-rule="evenodd" d="M28.4941 11.5196C28.3477 11.3979 28.1408 11.3827 27.983 11.4818L9.33053 23.1937C9.16168 23.2997 9.09165 23.5085 9.16171 23.6977C9.23173 23.887 9.42312 24.0052 9.62329 23.9838L24.1624 22.4318L24.1645 22.4315C24.3195 22.4142 24.4514 22.3166 24.5092 22.1737L28.6225 12.0137C28.6924 11.8412 28.6404 11.6413 28.4941 11.5196Z" fill="#FFCC02"/>
<path d="M43.0114 22.5V10.8636H47.6023C48.4848 10.8636 49.2367 11.0322 49.858 11.3693C50.4792 11.7027 50.9527 12.1667 51.2784 12.7614C51.608 13.3523 51.7727 14.0341 51.7727 14.8068C51.7727 15.5795 51.6061 16.2614 51.2727 16.8523C50.9394 17.4432 50.4564 17.9034 49.8239 18.233C49.1951 18.5625 48.4337 18.7273 47.5398 18.7273H44.6136V16.7557H47.142C47.6155 16.7557 48.0057 16.6742 48.3125 16.5114C48.6231 16.3447 48.8542 16.1155 49.0057 15.8239C49.161 15.5284 49.2386 15.1894 49.2386 14.8068C49.2386 14.4205 49.161 14.0833 49.0057 13.7955C48.8542 13.5038 48.6231 13.2784 48.3125 13.1193C48.0019 12.9564 47.608 12.875 47.1307 12.875H45.4716V22.5H43.0114ZM55.2595 22.6648C54.7027 22.6648 54.2065 22.5682 53.7709 22.375C53.3353 22.178 52.9906 21.8883 52.7368 21.5057C52.4868 21.1193 52.3618 20.6383 52.3618 20.0625C52.3618 19.5777 52.4508 19.1705 52.6289 18.8409C52.8069 18.5114 53.0493 18.2462 53.3561 18.0455C53.663 17.8447 54.0114 17.6932 54.4016 17.5909C54.7955 17.4886 55.2084 17.4167 55.6402 17.375C56.1478 17.322 56.5569 17.2727 56.8675 17.2273C57.1781 17.178 57.4035 17.1061 57.5436 17.0114C57.6838 16.9167 57.7539 16.7765 57.7539 16.5909V16.5568C57.7539 16.197 57.6402 15.9186 57.413 15.7216C57.1895 15.5246 56.8713 15.4261 56.4584 15.4261C56.0228 15.4261 55.6762 15.5227 55.4186 15.7159C55.1611 15.9053 54.9906 16.1439 54.9073 16.4318L52.6686 16.25C52.7823 15.7197 53.0058 15.2614 53.3391 14.875C53.6724 14.4848 54.1023 14.1856 54.6289 13.9773C55.1592 13.7652 55.7728 13.6591 56.4698 13.6591C56.9546 13.6591 57.4186 13.7159 57.8618 13.8295C58.3088 13.9432 58.7046 14.1193 59.0493 14.358C59.3978 14.5966 59.6724 14.9034 59.8732 15.2784C60.0739 15.6496 60.1743 16.0947 60.1743 16.6136V22.5H57.8789V21.2898H57.8107C57.6705 21.5625 57.483 21.803 57.2482 22.0114C57.0133 22.2159 56.7311 22.3769 56.4016 22.4943C56.072 22.608 55.6914 22.6648 55.2595 22.6648ZM55.9527 20.9943C56.3088 20.9943 56.6232 20.9242 56.8959 20.7841C57.1686 20.6402 57.3827 20.447 57.538 20.2045C57.6933 19.9621 57.7709 19.6875 57.7709 19.3807V18.4545C57.6952 18.5038 57.591 18.5492 57.4584 18.5909C57.3296 18.6288 57.1838 18.6648 57.0209 18.6989C56.858 18.7292 56.6952 18.7576 56.5323 18.7841C56.3694 18.8068 56.2217 18.8277 56.0891 18.8466C55.805 18.8883 55.5569 18.9545 55.3448 19.0455C55.1327 19.1364 54.9679 19.2595 54.8505 19.4148C54.733 19.5663 54.6743 19.7557 54.6743 19.983C54.6743 20.3125 54.7936 20.5644 55.0323 20.7386C55.2747 20.9091 55.5815 20.9943 55.9527 20.9943ZM61.7322 25.7727V13.7727H64.1185V15.2386H64.2265C64.3325 15.0038 64.4859 14.7652 64.6867 14.5227C64.8913 14.2765 65.1564 14.072 65.4822 13.9091C65.8117 13.7424 66.2208 13.6591 66.7094 13.6591C67.3458 13.6591 67.9329 13.8258 68.4708 14.1591C69.0087 14.4886 69.4386 14.9867 69.7606 15.6534C70.0825 16.3163 70.2435 17.1477 70.2435 18.1477C70.2435 19.1212 70.0863 19.9432 69.7719 20.6136C69.4613 21.2803 69.0371 21.786 68.4992 22.1307C67.9651 22.4716 67.3666 22.642 66.7038 22.642C66.2341 22.642 65.8344 22.5644 65.5049 22.4091C65.1791 22.2538 64.9121 22.0587 64.7038 21.8239C64.4954 21.5852 64.3363 21.3447 64.2265 21.1023H64.1526V25.7727H61.7322ZM64.1015 18.1364C64.1015 18.6553 64.1734 19.108 64.3174 19.4943C64.4613 19.8807 64.6697 20.1818 64.9424 20.3977C65.2151 20.6098 65.5466 20.7159 65.9367 20.7159C66.3306 20.7159 66.664 20.608 66.9367 20.392C67.2094 20.1723 67.4159 19.8693 67.556 19.483C67.7 19.0928 67.7719 18.6439 67.7719 18.1364C67.7719 17.6326 67.7019 17.1894 67.5617 16.8068C67.4216 16.4242 67.2151 16.125 66.9424 15.9091C66.6697 15.6932 66.3344 15.5852 65.9367 15.5852C65.5428 15.5852 65.2094 15.6894 64.9367 15.8977C64.6678 16.1061 64.4613 16.4015 64.3174 16.7841C64.1734 17.1667 64.1015 17.6174 64.1015 18.1364ZM75.5144 22.6705C74.6167 22.6705 73.844 22.4886 73.1963 22.125C72.5523 21.7576 72.0561 21.2386 71.7076 20.5682C71.3591 19.8939 71.1849 19.0966 71.1849 18.1761C71.1849 17.2784 71.3591 16.4905 71.7076 15.8125C72.0561 15.1345 72.5466 14.6061 73.1792 14.2273C73.8156 13.8485 74.5618 13.6591 75.4178 13.6591C75.9936 13.6591 76.5296 13.7519 77.0258 13.9375C77.5258 14.1193 77.9614 14.3939 78.3326 14.7614C78.7076 15.1288 78.9993 15.5909 79.2076 16.1477C79.4159 16.7008 79.5201 17.3485 79.5201 18.0909V18.7557H72.1508V17.2557H77.2417C77.2417 16.9072 77.1659 16.5985 77.0144 16.3295C76.8629 16.0606 76.6527 15.8504 76.3838 15.6989C76.1186 15.5436 75.8099 15.4659 75.4576 15.4659C75.0902 15.4659 74.7644 15.5511 74.4803 15.7216C74.2 15.8883 73.9803 16.1136 73.8213 16.3977C73.6622 16.678 73.5807 16.9905 73.5769 17.3352V18.7614C73.5769 19.1932 73.6565 19.5663 73.8156 19.8807C73.9784 20.1951 74.2076 20.4375 74.5031 20.608C74.7985 20.7784 75.1489 20.8636 75.5542 20.8636C75.8231 20.8636 76.0694 20.8258 76.2928 20.75C76.5163 20.6742 76.7076 20.5606 76.8667 20.4091C77.0258 20.2576 77.147 20.072 77.2303 19.8523L79.469 20C79.3553 20.5379 79.1224 21.0076 78.7701 21.4091C78.4216 21.8068 77.9709 22.1174 77.4178 22.3409C76.8686 22.5606 76.2341 22.6705 75.5144 22.6705ZM80.7797 22.5V13.7727H83.1263V15.2955H83.2172C83.3763 14.7538 83.6433 14.3447 84.0183 14.0682C84.3933 13.7879 84.8251 13.6477 85.3138 13.6477C85.435 13.6477 85.5656 13.6553 85.7058 13.6705C85.8459 13.6856 85.9691 13.7064 86.0751 13.733V15.8807C85.9615 15.8466 85.8043 15.8163 85.6035 15.7898C85.4028 15.7633 85.2191 15.75 85.0524 15.75C84.6963 15.75 84.3781 15.8277 84.0978 15.983C83.8213 16.1345 83.6016 16.3466 83.4388 16.6193C83.2797 16.892 83.2001 17.2064 83.2001 17.5625V22.5H80.7797ZM87.052 22.5V10.8636H91.7111C92.5671 10.8636 93.2812 10.9905 93.8531 11.2443C94.4251 11.4981 94.855 11.8504 95.1429 12.3011C95.4308 12.7481 95.5747 13.2633 95.5747 13.8466C95.5747 14.3011 95.4838 14.7008 95.302 15.0455C95.1202 15.3864 94.8702 15.6667 94.552 15.8864C94.2376 16.1023 93.8777 16.2557 93.4724 16.3466V16.4602C93.9156 16.4792 94.3304 16.6042 94.7168 16.8352C95.1069 17.0663 95.4232 17.3902 95.6656 17.8068C95.9081 18.2197 96.0293 18.7121 96.0293 19.2841C96.0293 19.9015 95.8759 20.4527 95.569 20.9375C95.266 21.4186 94.8171 21.7992 94.2224 22.0795C93.6277 22.3598 92.8948 22.5 92.0236 22.5H87.052ZM89.5122 20.4886H91.5179C92.2035 20.4886 92.7035 20.358 93.0179 20.0966C93.3323 19.8314 93.4895 19.4792 93.4895 19.0398C93.4895 18.7178 93.4118 18.4337 93.2565 18.1875C93.1012 17.9413 92.8796 17.7481 92.5918 17.608C92.3077 17.4678 91.9687 17.3977 91.5747 17.3977H89.5122V20.4886ZM89.5122 15.733H91.3361C91.6732 15.733 91.9724 15.6742 92.2338 15.5568C92.499 15.4356 92.7073 15.2652 92.8588 15.0455C93.0141 14.8258 93.0918 14.5625 93.0918 14.2557C93.0918 13.8352 92.9421 13.4962 92.6429 13.2386C92.3474 12.9811 91.927 12.8523 91.3815 12.8523H89.5122V15.733ZM101.208 22.6705C100.325 22.6705 99.562 22.483 98.9181 22.108C98.2779 21.7292 97.7836 21.2027 97.4351 20.5284C97.0866 19.8504 96.9124 19.0644 96.9124 18.1705C96.9124 17.2689 97.0866 16.4811 97.4351 15.8068C97.7836 15.1288 98.2779 14.6023 98.9181 14.2273C99.562 13.8485 100.325 13.6591 101.208 13.6591C102.09 13.6591 102.852 13.8485 103.492 14.2273C104.136 14.6023 104.632 15.1288 104.981 15.8068C105.329 16.4811 105.503 17.2689 105.503 18.1705C105.503 19.0644 105.329 19.8504 104.981 20.5284C104.632 21.2027 104.136 21.7292 103.492 22.108C102.852 22.483 102.09 22.6705 101.208 22.6705ZM101.219 20.7955C101.621 20.7955 101.956 20.6818 102.225 20.4545C102.494 20.2235 102.696 19.9091 102.833 19.5114C102.973 19.1136 103.043 18.661 103.043 18.1534C103.043 17.6458 102.973 17.1932 102.833 16.7955C102.696 16.3977 102.494 16.0833 102.225 15.8523C101.956 15.6212 101.621 15.5057 101.219 15.5057C100.814 15.5057 100.473 15.6212 100.196 15.8523C99.9238 16.0833 99.7173 16.3977 99.5772 16.7955C99.4408 17.1932 99.3726 17.6458 99.3726 18.1534C99.3726 18.661 99.4408 19.1136 99.5772 19.5114C99.7173 19.9091 99.9238 20.2235 100.196 20.4545C100.473 20.6818 100.814 20.7955 101.219 20.7955ZM109.246 22.6648C108.689 22.6648 108.193 22.5682 107.757 22.375C107.322 22.178 106.977 21.8883 106.723 21.5057C106.473 21.1193 106.348 20.6383 106.348 20.0625C106.348 19.5777 106.437 19.1705 106.615 18.8409C106.793 18.5114 107.036 18.2462 107.342 18.0455C107.649 17.8447 107.998 17.6932 108.388 17.5909C108.782 17.4886 109.195 17.4167 109.626 17.375C110.134 17.322 110.543 17.2727 110.854 17.2273C111.164 17.178 111.39 17.1061 111.53 17.0114C111.67 16.9167 111.74 16.7765 111.74 16.5909V16.5568C111.74 16.197 111.626 15.9186 111.399 15.7216C111.176 15.5246 110.858 15.4261 110.445 15.4261C110.009 15.4261 109.662 15.5227 109.405 15.7159C109.147 15.9053 108.977 16.1439 108.894 16.4318L106.655 16.25C106.769 15.7197 106.992 15.2614 107.325 14.875C107.659 14.4848 108.089 14.1856 108.615 13.9773C109.145 13.7652 109.759 13.6591 110.456 13.6591C110.941 13.6591 111.405 13.7159 111.848 13.8295C112.295 13.9432 112.691 14.1193 113.036 14.358C113.384 14.5966 113.659 14.9034 113.859 15.2784C114.06 15.6496 114.161 16.0947 114.161 16.6136V22.5H111.865V21.2898H111.797C111.657 21.5625 111.469 21.803 111.234 22.0114C111 22.2159 110.717 22.3769 110.388 22.4943C110.058 22.608 109.678 22.6648 109.246 22.6648ZM109.939 20.9943C110.295 20.9943 110.609 20.9242 110.882 20.7841C111.155 20.6402 111.369 20.447 111.524 20.2045C111.68 19.9621 111.757 19.6875 111.757 19.3807V18.4545C111.681 18.5038 111.577 18.5492 111.445 18.5909C111.316 18.6288 111.17 18.6648 111.007 18.6989C110.844 18.7292 110.681 18.7576 110.519 18.7841C110.356 18.8068 110.208 18.8277 110.075 18.8466C109.791 18.8883 109.543 18.9545 109.331 19.0455C109.119 19.1364 108.954 19.2595 108.837 19.4148C108.719 19.5663 108.661 19.7557 108.661 19.983C108.661 20.3125 108.78 20.5644 109.019 20.7386C109.261 20.9091 109.568 20.9943 109.939 20.9943ZM120.36 13.7727V15.5909H115.105V13.7727H120.36ZM116.298 11.6818H118.718V19.8182C118.718 20.0417 118.753 20.2159 118.821 20.3409C118.889 20.4621 118.984 20.5473 119.105 20.5966C119.23 20.6458 119.374 20.6705 119.537 20.6705C119.65 20.6705 119.764 20.661 119.878 20.642C119.991 20.6193 120.078 20.6023 120.139 20.5909L120.52 22.392C120.398 22.4299 120.228 22.4735 120.008 22.5227C119.788 22.5758 119.521 22.608 119.207 22.6193C118.624 22.642 118.112 22.5644 117.673 22.3864C117.237 22.2083 116.898 21.9318 116.656 21.5568C116.413 21.1818 116.294 20.7083 116.298 20.1364V11.6818Z" fill="#111827"/>
</svg>
