<svg width="14" height="9" viewBox="0 0 14 9" fill="none" xmlns="http://www.w3.org/2000/svg">
<path fill-rule="evenodd" clip-rule="evenodd" d="M8.49435 0.793389C8.49435 1.23156 8.84955 1.58676 9.28772 1.58676H10.5459L7.70101 4.4317L5.88188 2.61334C5.57169 2.30316 5.07028 2.30316 4.76009 2.61334L0.560865 6.81257C0.251108 7.12233 0.251107 7.62454 0.560864 7.9343C0.870642 8.24408 1.3729 8.24405 1.68265 7.93424L5.32096 4.29522L7.1401 6.11435C7.45029 6.42454 7.9517 6.42454 8.26188 6.11435L11.6677 2.70851V3.96675C11.6677 4.40491 12.0229 4.76011 12.4611 4.76011C12.8992 4.76011 13.2544 4.40491 13.2544 3.96675V1.52588e-05H9.28772C8.84955 1.52588e-05 8.49435 0.355221 8.49435 0.793389Z" fill="#454545"/>
</svg>
