<svg width="26" height="26" viewBox="0 0 26 26" fill="none" xmlns="http://www.w3.org/2000/svg">
<circle cx="13" cy="13" r="13" fill="#FFCFD7"/>
<path fill-rule="evenodd" clip-rule="evenodd" d="M15.2539 8.93391C15.2539 9.44969 15.672 9.86782 16.1878 9.86782H17.7305L14.2962 13.2167L12.1003 11.0762C11.7258 10.7111 11.1206 10.7111 10.7461 11.0762L5.69408 16.0027C5.31361 16.3737 5.31361 16.9853 5.69408 17.3563C6.06128 17.7144 6.647 17.7144 7.01416 17.3563L11.4232 13.056L13.6191 15.1974C13.9936 15.5625 14.5988 15.5625 14.9733 15.1974L19.0846 11.1883V12.6456C19.0846 13.1745 19.5134 13.6033 20.0423 13.6033C20.5712 13.6033 21 13.1745 21 12.6456V8H16.1878C15.672 8 15.2539 8.41812 15.2539 8.93391Z" fill="#FF5973"/>
</svg>
