<svg width="14" height="9" viewBox="0 0 14 9" fill="none" xmlns="http://www.w3.org/2000/svg">
<path fill-rule="evenodd" clip-rule="evenodd" d="M8.49435 8.20664C8.49435 7.76847 8.84955 7.41327 9.28772 7.41327H10.5459L7.70101 4.56833L5.88188 6.38669C5.57169 6.69687 5.07028 6.69687 4.76009 6.38669L0.560865 2.18746C0.251108 1.8777 0.251107 1.37549 0.560864 1.06573C0.870642 0.755955 1.3729 0.75598 1.68265 1.06579L5.32096 4.70481L7.1401 2.88568C7.45029 2.57549 7.9517 2.57549 8.26188 2.88568L11.6677 6.29152V5.03328C11.6677 4.59512 12.0229 4.23992 12.4611 4.23992C12.8992 4.23992 13.2544 4.59512 13.2544 5.03328V9.00002H9.28772C8.84955 9.00002 8.49435 8.64481 8.49435 8.20664Z" fill="#454545"/>
</svg>
