<svg width="26" height="26" viewBox="0 0 26 26" fill="none" xmlns="http://www.w3.org/2000/svg">
<circle cx="13" cy="13" r="13" fill="#D8D9FF"/>
<path fill-rule="evenodd" clip-rule="evenodd" d="M15.2539 17.0661C15.2539 16.5503 15.672 16.1322 16.1878 16.1322H17.7305L14.2962 12.7833L12.1003 14.9238C11.7258 15.2889 11.1206 15.2889 10.7461 14.9238L5.69408 9.99732C5.31361 9.6263 5.31361 9.01468 5.69408 8.64366C6.06128 8.2856 6.647 8.28562 7.01416 8.64372L11.4232 12.944L13.6191 10.8026C13.9936 10.4375 14.5988 10.4375 14.9733 10.8026L19.0846 14.8117V13.3544C19.0846 12.8255 19.5134 12.3967 20.0423 12.3967C20.5712 12.3967 21 12.8255 21 13.3544V18H16.1878C15.672 18 15.2539 17.5819 15.2539 17.0661Z" fill="#6F73D7"/>
</svg>
