<svg width="46" height="46" viewBox="0 0 46 46" fill="none" xmlns="http://www.w3.org/2000/svg">
<rect y="-7.62939e-06" width="46" height="46" rx="2" fill="#C437DB"/>
<path fill-rule="evenodd" clip-rule="evenodd" d="M31.3013 11H34.4919C34.7717 11 35 11.2283 35 11.5081V35.4919C35 35.7717 34.7717 36 34.4919 36H31.3013C31.0214 36 30.7932 35.7717 30.7932 35.4919V11.5081C30.7932 11.2283 31.0214 11 31.3013 11ZM10.5081 26.0604H13.6987C13.9786 26.0604 14.2068 26.2886 14.2068 26.5685V35.4919C14.2068 35.7717 13.9786 36 13.6987 36H10.5081C10.2283 36 10 35.7717 10 35.4919V26.5685C10 26.2886 10.2283 26.0604 10.5081 26.0604ZM17.4392 21.0402H20.6297C20.9096 21.0402 21.1379 21.2685 21.1379 21.5484V35.4919C21.1379 35.7717 20.9096 36 20.6297 36C19.5662 36 18.5027 36 17.4392 36C17.1593 36 16.931 35.7717 16.931 35.4919C16.931 30.844 16.931 26.1962 16.931 21.5484C16.9311 21.2685 17.1593 21.0402 17.4392 21.0402ZM24.3702 16.0201H27.5608C27.8407 16.0201 28.0689 16.2484 28.0689 16.5283V35.4919C28.0689 35.7717 27.8407 36 27.5608 36C26.4973 36 25.4337 36 24.3702 36C24.0903 36 23.8621 35.7717 23.8621 35.4919C23.8621 29.1706 23.8621 22.8494 23.8621 16.5283C23.8621 16.2484 24.0904 16.0201 24.3702 16.0201Z" fill="white"/>
</svg>
