<svg width="33" height="33" viewBox="0 0 33 33" fill="none" xmlns="http://www.w3.org/2000/svg">
<mask id="mask0_163_193" style="mask-type:alpha" maskUnits="userSpaceOnUse" x="0" y="0" width="33" height="33">
<rect width="33" height="33" fill="#D9D9D9"/>
</mask>
<g mask="url(#mask0_163_193)">
<path d="M3.4375 13.7501C3.4375 11.8251 3.83304 10.0087 4.62412 8.30097C5.41429 6.59414 6.51979 5.11051 7.94062 3.8501L9.41875 5.29385C8.18125 6.37093 7.21875 7.63685 6.53125 9.0916C5.84375 10.5473 5.5 12.1001 5.5 13.7501H3.4375ZM27.5 13.7501C27.5 12.1001 27.1562 10.5473 26.4687 9.0916C25.7812 7.63685 24.8187 6.37093 23.5812 5.29385L25.0594 3.8501C26.4802 5.11051 27.5862 6.59414 28.3772 8.30097C29.1674 10.0087 29.5625 11.8251 29.5625 13.7501H27.5ZM5.84375 25.9532V23.8907H8.59375V13.922C8.59375 12.0428 9.17262 10.3868 10.3304 8.9541C11.4872 7.52227 12.9708 6.6001 14.7812 6.1876V5.2251C14.7812 4.74385 14.9476 4.33685 15.2804 4.0041C15.6122 3.67226 16.0187 3.50635 16.5 3.50635C16.9812 3.50635 17.3878 3.67226 17.7196 4.0041C18.0524 4.33685 18.2187 4.74385 18.2187 5.2251V6.1876C20.0292 6.6001 21.5132 7.52227 22.671 8.9541C23.8278 10.3868 24.4062 12.0428 24.4062 13.922V23.8907H27.1562V25.9532H5.84375ZM16.5 29.9751C15.8125 29.9751 15.2281 29.7345 14.7469 29.2532C14.2656 28.772 14.025 28.1876 14.025 27.5001H18.975C18.975 28.1876 18.7344 28.772 18.2531 29.2532C17.7719 29.7345 17.1875 29.9751 16.5 29.9751ZM10.6562 23.8907H22.3437V13.922C22.3437 12.2949 21.7763 10.9139 20.6415 9.7791C19.5076 8.64518 18.1271 8.07822 16.5 8.07822C14.8729 8.07822 13.4924 8.64518 12.3585 9.7791C11.2237 10.9139 10.6562 12.2949 10.6562 13.922V23.8907Z" fill="#2D2D2D"/>
</g>
</svg>
