<svg width="43" height="40" viewBox="0 0 43 40" fill="none" xmlns="http://www.w3.org/2000/svg">
<rect y="1.52588e-05" width="43" height="40" rx="2" fill="#ACF3FF"/>
<path d="M28.0021 12.6352L28.0022 12.6353C28.9877 12.9297 29.8292 13.5789 30.3641 14.4575C30.891 15.3228 31.0836 16.3502 30.907 17.3467C31.7289 17.5702 32.4654 18.0351 33.0208 18.6819C33.5863 19.3404 33.9372 20.1559 34.0264 21.0193C34.0854 21.5759 34.0335 22.1387 33.8736 22.6751C33.7137 23.2115 33.449 23.7109 33.0947 24.1443C32.4991 24.8766 31.7018 25.6399 30.3501 25.6754L30.3499 25.6754C30.3424 25.6756 30.3336 25.6758 29.0698 25.6767M28.0021 12.6352L29.9376 17.6018C29.9212 17.6567 29.9168 17.7145 29.9246 17.7712C29.9324 17.828 29.9523 17.8825 29.9829 17.9309C30.0135 17.9794 30.0542 18.0207 30.1021 18.0522C30.15 18.0836 30.2041 18.1045 30.2607 18.1133L30.2611 18.1133C30.8519 18.2009 31.41 18.4398 31.8813 18.8067C32.2326 19.0839 32.5253 19.4282 32.7423 19.8196C32.9594 20.2109 33.0965 20.6416 33.1457 21.0864C33.1949 21.5312 33.1553 21.9814 33.029 22.4107C32.9027 22.8401 32.6923 23.2401 32.4101 23.5874C31.8317 24.2984 31.2611 24.7672 30.3318 24.7929C30.3316 24.7929 30.3313 24.7929 30.3311 24.7929L29.0691 24.7939H29.0691C28.9987 24.794 28.9294 24.811 28.8669 24.8433C28.8044 24.8755 28.7505 24.9222 28.7097 24.9795C28.6688 25.0368 28.6422 25.103 28.632 25.1726C28.6219 25.2421 28.6284 25.3131 28.6511 25.3796C28.6807 25.467 28.7371 25.5428 28.8124 25.5962C28.8876 25.6495 28.9777 25.6777 29.0698 25.6767M28.0021 12.6352C27.0572 12.3553 26.0444 12.4181 25.142 12.8117C24.8114 12.3396 24.4214 11.912 23.9814 11.5394L23.9814 11.5394C21.1499 9.14291 16.8966 9.49685 14.5001 12.3285C13.9252 13.0076 13.4908 13.7942 13.2221 14.6425C12.9586 15.4747 12.8596 16.3501 12.9307 17.2198C11.8583 17.3053 10.8966 17.7229 10.1856 18.4226C9.38829 19.2069 8.95 20.2851 8.95 21.4579L8.95 21.458C8.95181 22.4361 9.28844 23.384 9.90389 24.1441L9.90397 24.1442C10.441 24.8043 11.2405 25.5813 12.6299 25.6743M28.0021 12.6352L25.2044 13.7661L25.171 13.7849L25.1709 13.7849C25.0805 13.8358 24.9739 13.8497 24.8734 13.8237C24.7729 13.7977 24.6864 13.7339 24.632 13.6455L24.632 13.6455L24.6118 13.6126L24.6118 13.6126C23.9049 12.4619 22.8211 11.5916 21.5449 11.1498C20.2687 10.7079 18.8788 10.7219 17.6117 11.1892C16.3446 11.6566 15.2785 12.5485 14.5948 13.7132C13.9111 14.8779 13.652 16.2435 13.8616 17.5776L13.869 17.6246L13.869 17.6246C13.878 17.6824 13.8743 17.7415 13.8581 17.7977C13.8419 17.8539 13.8136 17.906 13.7752 17.9501C13.7369 17.9943 13.6893 18.0295 13.6358 18.0533C13.5824 18.0772 13.5244 18.089 13.4659 18.0881H13.4659L13.4184 18.0873L13.4184 18.0873C12.3648 18.0696 11.4626 18.405 10.8046 19.0522C10.1784 19.6681 9.83275 20.522 9.83275 21.4579C9.83425 22.2334 10.1012 22.9851 10.5892 23.5879C11.044 24.147 11.6432 24.7197 12.6773 24.793C12.7699 24.7934 13.3827 24.7939 13.7923 24.7939H13.7924C13.8628 24.794 13.932 24.8109 13.9945 24.8432C14.057 24.8755 14.1109 24.9221 14.1518 24.9794C14.1927 25.0366 14.2193 25.1028 14.2295 25.1723C14.2397 25.2419 14.2332 25.3128 14.2105 25.3794C14.181 25.4668 14.1246 25.5426 14.0493 25.596C13.9741 25.6493 13.884 25.6774 13.7918 25.6764M29.0698 25.6767C29.0697 25.6767 29.0697 25.6767 29.0696 25.6767L29.0696 25.6267L29.0701 25.6767C29.07 25.6767 29.0699 25.6767 29.0698 25.6767ZM13.7918 25.6764C12.6591 25.676 12.65 25.6757 12.6299 25.6743M13.7918 25.6764C13.7917 25.6764 13.7916 25.6764 13.7915 25.6764L13.7921 25.6264M13.7918 25.6764C13.7919 25.6764 13.792 25.6764 13.7921 25.6764L13.7921 25.6264M12.6299 25.6743L12.6334 25.6244M12.6299 25.6743C12.63 25.6743 12.63 25.6743 12.63 25.6743L12.6334 25.6244M12.6334 25.6244C11.2642 25.5328 10.4762 24.7684 9.94275 24.1126L13.7921 25.6264M12.6334 25.6244C12.6511 25.6257 12.6571 25.626 13.7921 25.6264M29.9382 17.5997L29.9376 17.6017L25.2045 13.766C25.5882 13.551 26.0111 13.415 26.4482 13.3662C26.8854 13.3173 27.3279 13.3565 27.7496 13.4815L27.7497 13.4815C28.1631 13.6038 28.5482 13.8071 28.8824 14.0794C29.2166 14.3518 29.4934 14.6878 29.6966 15.068C30.1086 15.8466 30.1955 16.7567 29.9383 17.5993L29.9382 17.5997Z" fill="#454545" stroke="#454545" stroke-width="0.1"/>
<path d="M27.4413 16.8661H15.5573C15.4691 16.8661 15.3817 16.8835 15.3002 16.9173C15.2187 16.951 15.1447 17.0005 15.0823 17.0629C15.0199 17.1252 14.9704 17.1993 14.9367 17.2808C14.9029 17.3623 14.8855 17.4496 14.8855 17.5378V20.0569C14.8855 20.1451 14.9029 20.2325 14.9367 20.314C14.9704 20.3955 15.0199 20.4695 15.0823 20.5319C15.1447 20.5943 15.2187 20.6437 15.3002 20.6775C15.3817 20.7113 15.4691 20.7286 15.5573 20.7286H27.4414C27.5296 20.7286 27.6169 20.7113 27.6984 20.6775C27.7799 20.6437 27.854 20.5943 27.9163 20.5319C27.9787 20.4695 28.0282 20.3955 28.062 20.314C28.0957 20.2325 28.1131 20.1451 28.1131 20.0569V17.5379C28.1131 17.3597 28.0423 17.1889 27.9163 17.0629C27.7903 16.9369 27.6195 16.8661 27.4413 16.8661ZM27.2302 19.8459H15.7684V17.7487H27.2306L27.2302 19.8459Z" fill="#454545" stroke="#454545" stroke-width="0.1"/>
<path d="M16.9657 18.3561C16.8522 18.3547 16.7423 18.3962 16.6582 18.4724C16.5739 18.5486 16.5215 18.6538 16.5116 18.767L16.5116 18.767L16.5115 18.7681C16.5075 18.8284 16.5159 18.8888 16.5362 18.9458C16.5565 19.0027 16.5883 19.0548 16.6296 19.099C16.6709 19.1431 16.7208 19.1783 16.7763 19.2023C16.8317 19.2264 16.8915 19.2388 16.9519 19.2388H16.9519L21.8548 18.4061L21.8547 18.3561H16.9657ZM16.9657 18.3561C16.9658 18.3561 16.9659 18.3561 16.966 18.3561L16.9654 18.4061V18.3561H16.9657ZM22.0304 18.3925C21.975 18.3684 21.9152 18.356 21.8548 18.3561L21.8414 19.1888L21.8408 19.2388C21.8409 19.2388 21.841 19.2388 21.8411 19.2388C21.9546 19.2402 22.0644 19.1986 22.1486 19.1225C22.2329 19.0463 22.2852 18.941 22.2952 18.8278L22.2952 18.8279L22.2953 18.8268C22.2993 18.7665 22.2909 18.706 22.2705 18.6491C22.2502 18.5921 22.2184 18.54 22.1771 18.4959C22.1358 18.4517 22.0859 18.4165 22.0304 18.3925Z" fill="#454545" stroke="#454545" stroke-width="0.1"/>
<path d="M24.4314 18.8279L24.4314 18.8278C24.4214 18.941 24.3691 19.0463 24.2848 19.1225C24.2006 19.1986 24.0908 19.2402 23.9773 19.2388M24.4314 18.8279L23.7665 19.1888L23.7665 19.2388H23.9773M24.4314 18.8279L24.4314 18.8268C24.4355 18.7665 24.4271 18.706 24.4067 18.6491C24.3864 18.5921 24.3546 18.54 24.3133 18.4959C24.272 18.4517 24.2221 18.4165 24.1666 18.3925C24.1112 18.3684 24.0514 18.356 23.9909 18.3561L24.4314 18.8279ZM23.9773 19.2388C23.9772 19.2388 23.9771 19.2388 23.977 19.2388L23.9776 19.1888V19.2388H23.9773ZM23.7801 18.3561C23.6666 18.3547 23.5568 18.3962 23.4726 18.4724C23.3883 18.5486 23.336 18.6538 23.3261 18.767L23.326 18.767L23.326 18.7681C23.322 18.8284 23.3304 18.8889 23.3507 18.9458C23.371 19.0027 23.4028 19.0549 23.4441 19.099C23.4854 19.1432 23.5354 19.1783 23.5908 19.2024C23.6463 19.2264 23.7061 19.2388 23.7665 19.2388L23.9909 18.4061L23.9909 18.3561H23.7801ZM23.7801 18.3561C23.7802 18.3561 23.7803 18.3561 23.7804 18.3561L23.7798 18.4061V18.3561H23.7801Z" fill="#454545" stroke="#454545" stroke-width="0.1"/>
<path d="M25.8962 18.8279L25.8962 18.8278C25.8863 18.941 25.8339 19.0463 25.7497 19.1225C25.6655 19.1986 25.5557 19.2401 25.4422 19.2388M25.8962 18.8279L25.2313 19.1888L25.2313 19.2388H25.4422M25.8962 18.8279L25.8963 18.8268C25.9003 18.7665 25.8919 18.706 25.8716 18.6491C25.8513 18.5921 25.8195 18.54 25.7782 18.4958C25.7369 18.4517 25.6869 18.4165 25.6315 18.3925C25.576 18.3684 25.5162 18.356 25.4558 18.3561L25.8962 18.8279ZM25.4422 19.2388C25.4421 19.2388 25.442 19.2388 25.4419 19.2388L25.4425 19.1888V19.2388H25.4422ZM25.245 18.3561C25.1315 18.3547 25.0216 18.3962 24.9375 18.4724C24.8532 18.5486 24.8008 18.6538 24.7909 18.767L24.7909 18.767L24.7908 18.7681C24.7868 18.8284 24.7952 18.8889 24.8155 18.9458C24.8359 19.0027 24.8676 19.0549 24.909 19.099C24.9503 19.1431 25.0002 19.1783 25.0556 19.2024C25.1111 19.2264 25.1709 19.2388 25.2313 19.2388L25.4558 18.4061L25.4558 18.3561H25.245ZM25.245 18.3561C25.2451 18.3561 25.2452 18.3561 25.2453 18.3561L25.2447 18.4061V18.3561H25.245Z" fill="#454545" stroke="#454545" stroke-width="0.1"/>
<path d="M27.4413 21.3122H15.5573C15.4691 21.3122 15.3817 21.3295 15.3002 21.3633C15.2187 21.397 15.1447 21.4465 15.0823 21.5089C15.0199 21.5713 14.9704 21.6453 14.9367 21.7268C14.9029 21.8083 14.8855 21.8957 14.8855 21.9839V24.503C14.8855 24.5912 14.9029 24.6785 14.9367 24.76C14.9704 24.8415 15.0199 24.9155 15.0823 24.9779C15.1447 25.0403 15.2187 25.0898 15.3002 25.1235C15.3817 25.1573 15.4691 25.1747 15.5573 25.1747H27.4414C27.5296 25.1747 27.6169 25.1573 27.6984 25.1235C27.7799 25.0898 27.854 25.0403 27.9163 24.9779C27.9787 24.9155 28.0282 24.8415 28.062 24.76C28.0957 24.6785 28.1131 24.5912 28.1131 24.503V21.9839C28.1131 21.8057 28.0423 21.6349 27.9163 21.5089C27.7903 21.3829 27.6195 21.3122 27.4413 21.3122ZM27.2302 24.2919H15.7684V22.1947H27.2306L27.2302 24.2919Z" fill="#454545" stroke="#454545" stroke-width="0.1"/>
<path d="M16.9657 22.8021C16.8522 22.8007 16.7423 22.8422 16.6581 22.9184C16.5739 22.9946 16.5215 23.0999 16.5116 23.2131L16.5116 23.2131L16.5115 23.2141C16.5075 23.2744 16.5159 23.3349 16.5362 23.3918C16.5566 23.4487 16.5883 23.5008 16.6296 23.545C16.6709 23.5891 16.7208 23.6243 16.7763 23.6483C16.8317 23.6724 16.8915 23.6848 16.9519 23.6848H16.9519L21.8414 23.6348L21.8408 23.6848C21.8409 23.6848 21.841 23.6848 21.8411 23.6848C21.9546 23.6862 22.0644 23.6446 22.1486 23.5685C22.2329 23.4923 22.2852 23.387 22.2952 23.2738L22.2952 23.2739L22.2953 23.2728C22.2993 23.2125 22.2908 23.152 22.2705 23.0951C22.2502 23.0381 22.2184 22.986 22.1771 22.9419C22.1358 22.8977 22.0859 22.8626 22.0304 22.8385C21.975 22.8145 21.9152 22.802 21.8547 22.8021H16.9657ZM16.9657 22.8021C16.9658 22.8021 16.9659 22.8021 16.966 22.8021L16.9654 22.8521V22.8021H16.9657Z" fill="#454545" stroke="#454545" stroke-width="0.1"/>
<path d="M24.4314 23.2739L24.4314 23.2738C24.4214 23.387 24.3691 23.4923 24.2848 23.5685C24.2006 23.6446 24.0908 23.6862 23.9773 23.6848M24.4314 23.2739L23.7665 23.6348L23.7665 23.6848H23.9773M24.4314 23.2739L24.4314 23.2728C24.4355 23.2125 24.427 23.152 24.4067 23.0951C24.3864 23.0381 24.3546 22.986 24.3133 22.9419C24.272 22.8977 24.2221 22.8626 24.1666 22.8385C24.1112 22.8145 24.0514 22.802 23.9909 22.8021L24.4314 23.2739ZM23.9773 23.6848C23.9772 23.6848 23.9771 23.6848 23.977 23.6848L23.9776 23.6348V23.6848H23.9773ZM23.7801 22.8021C23.6666 22.8007 23.5568 22.8422 23.4726 22.9184C23.3883 22.9946 23.336 23.0999 23.3261 23.2131L23.326 23.2131L23.326 23.2141C23.322 23.2744 23.3304 23.3349 23.3507 23.3918C23.371 23.4488 23.4028 23.5009 23.4441 23.545C23.4854 23.5892 23.5354 23.6243 23.5908 23.6484C23.6463 23.6724 23.7061 23.6848 23.7665 23.6848L23.9909 22.8521L23.9909 22.8021H23.7801ZM23.7801 22.8021C23.7802 22.8021 23.7803 22.8021 23.7804 22.8021L23.7798 22.8521V22.8021H23.7801Z" fill="#454545" stroke="#454545" stroke-width="0.1"/>
<path d="M25.8962 23.2739L25.8962 23.2738C25.8863 23.387 25.8339 23.4923 25.7497 23.5685C25.6655 23.6446 25.5557 23.6861 25.4422 23.6848M25.8962 23.2739L25.2313 23.6348L25.2313 23.6848H25.4422M25.8962 23.2739L25.8963 23.2728C25.9003 23.2125 25.8919 23.152 25.8716 23.0951C25.8513 23.0381 25.8195 22.986 25.7782 22.9419C25.7369 22.8977 25.6869 22.8625 25.6315 22.8385C25.576 22.8144 25.5162 22.802 25.4558 22.8021L25.8962 23.2739ZM25.4422 23.6848C25.4421 23.6848 25.442 23.6848 25.4419 23.6848L25.4425 23.6348V23.6848H25.4422ZM25.245 22.8021C25.1315 22.8007 25.0216 22.8422 24.9374 22.9184C24.8532 22.9946 24.8008 23.0999 24.7909 23.2131L24.7909 23.2131L24.7908 23.2141C24.7868 23.2744 24.7952 23.3349 24.8155 23.3918C24.8359 23.4487 24.8677 23.5009 24.909 23.545C24.9503 23.5891 25.0002 23.6243 25.0556 23.6484C25.1111 23.6724 25.1709 23.6848 25.2313 23.6848L25.4558 22.8521L25.4558 22.8021H25.245ZM25.245 22.8021C25.2451 22.8021 25.2452 22.8021 25.2453 22.8021L25.2447 22.8521V22.8021H25.245Z" fill="#454545" stroke="#454545" stroke-width="0.1"/>
<path d="M27.4414 25.7582H27.4414L15.5573 25.7582L15.5572 25.7582C15.3791 25.7583 15.2084 25.8292 15.0825 25.9551C14.9566 26.081 14.8857 26.2517 14.8855 26.4298V26.4299L14.8855 28.949L14.8855 28.949C14.8857 29.1271 14.9566 29.2978 15.0825 29.4237C15.2084 29.5496 15.3791 29.6205 15.5572 29.6207H15.5573H27.4414H27.4414C27.6195 29.6205 27.7902 29.5496 27.9161 29.4237C28.0421 29.2978 28.1129 29.1271 28.1131 28.949V28.949V26.4299V26.4298C28.1129 26.2517 28.0421 26.081 27.9161 25.9551C27.7902 25.8292 27.6195 25.7583 27.4414 25.7582ZM27.2302 28.7379H15.7684V26.6407H27.2306L27.2302 28.7379Z" fill="#454545" stroke="#454545" stroke-width="0.1"/>
<path d="M16.9509 28.1308L16.9509 28.1308C16.8347 28.1295 16.7237 28.0824 16.642 27.9998C16.5603 27.9172 16.5145 27.8056 16.5145 27.6894C16.5145 27.5732 16.5603 27.4617 16.642 27.3791C16.7237 27.2964 16.8347 27.2494 16.9509 27.2481L16.9515 27.2481V27.2481H21.8541H21.8543V27.2981C21.9061 27.2975 21.9575 27.3072 22.0055 27.3266C22.0535 27.346 22.0971 27.3747 22.1339 27.4111C22.1707 27.4475 22.2 27.4909 22.2199 27.5386C22.2398 27.5864 22.2501 27.6377 22.2501 27.6894C22.2501 27.7412 22.2398 27.7925 22.2199 27.8402C22.2 27.888 22.1707 27.9313 22.1339 27.9677C22.0971 28.0041 22.0535 28.0329 22.0055 28.0523C21.9575 28.0717 21.9061 28.0814 21.8543 28.0808L16.9509 28.1308ZM16.9509 28.1308H16.9515H21.8541H16.9509Z" fill="#454545" stroke="#454545" stroke-width="0.1"/>
<path d="M23.9915 28.1308V28.1308H23.7671H23.7669V28.0808L23.9915 28.1308ZM23.9915 28.1308L23.992 28.1308M23.9915 28.1308L23.992 28.1308M23.992 28.1308C24.1082 28.1295 24.2192 28.0824 24.3009 27.9998C24.3827 27.9172 24.4285 27.8056 24.4285 27.6894C24.4285 27.5732 24.3827 27.4617 24.3009 27.3791C24.2192 27.2964 24.1082 27.2494 23.992 27.2481L23.992 27.2481M23.992 28.1308L23.992 27.2481M23.992 27.2481H23.9915M23.992 27.2481H23.9915M23.9915 27.2481H23.7671H23.9915Z" fill="#454545" stroke="#454545" stroke-width="0.1"/>
<path d="M25.2322 28.1308L25.2322 28.1308C25.116 28.1295 25.005 28.0824 24.9232 27.9998C24.8415 27.9172 24.7957 27.8056 24.7957 27.6894C24.7957 27.5732 24.8415 27.4617 24.9232 27.3791C25.005 27.2964 25.116 27.2494 25.2322 27.2481L25.2327 27.2481V27.2481H25.4571H25.4573V27.2981C25.5091 27.2975 25.5605 27.3072 25.6085 27.3266C25.6564 27.346 25.7001 27.3747 25.7369 27.4111C25.7737 27.4475 25.8029 27.4909 25.8229 27.5386C25.8428 27.5864 25.8531 27.6377 25.8531 27.6894C25.8531 27.7412 25.8428 27.7925 25.8229 27.8402C25.8029 27.888 25.7737 27.9313 25.7369 27.9677C25.7001 28.0041 25.6564 28.0329 25.6085 28.0523C25.5605 28.0717 25.5091 28.0814 25.4573 28.0808L25.2322 28.1308ZM25.2322 28.1308H25.2327H25.4571H25.2322Z" fill="#454545" stroke="#454545" stroke-width="0.1"/>
</svg>
